<?xml version="1.0" standalone="no"?>
<!DOCTYPE svg PUBLIC "-//W3C//DTD SVG 20010904//EN"
 "http://www.w3.org/TR/2001/REC-SVG-20010904/DTD/svg10.dtd">
<svg version="1.0" xmlns="http://www.w3.org/2000/svg"
 width="512.000000pt" height="512.000000pt" viewBox="0 0 512.000000 512.000000"
 preserveAspectRatio="xMidYMid meet">
<metadata>
Created by potrace 1.14, written by Peter Selinger 2001-2017
</metadata>
<g transform="translate(0.000000,512.000000) scale(0.100000,-0.100000)"
fill="#000000" stroke="none">
<path d="M4578 4345 c-1 -1 -34 -5 -72 -9 -38 -4 -72 -9 -77 -11 -4 -3 -58 -8
-121 -10 -132 -6 -182 -11 -223 -24 -102 -31 -370 -159 -790 -379 -152 -79
-413 -215 -605 -315 -210 -108 -375 -194 -495 -257 -60 -32 -177 -92 -260
-135 -82 -43 -195 -101 -250 -130 -55 -29 -175 -91 -267 -139 l-168 -87 -177
92 c-98 50 -216 112 -263 137 -47 25 -92 48 -100 52 -25 12 -70 35 -170 87
-236 124 -239 126 -277 120 -44 -8 -189 -81 -225 -115 -30 -28 -43 -68 -33
-110 3 -16 147 -204 330 -433 179 -222 325 -406 325 -409 0 -3 -37 -24 -83
-47 -89 -46 -117 -78 -117 -133 0 -66 53 -120 117 -120 15 0 318 97 673 216
355 118 652 217 660 219 8 2 96 31 195 64 98 34 180 61 182 61 2 0 -64 -110
-215 -359 -70 -115 -104 -179 -104 -201 -1 -42 31 -83 74 -94 32 -8 49 -2 216
85 198 103 201 106 409 325 67 71 152 161 190 200 37 39 147 154 243 254 338
354 344 360 455 415 55 28 165 84 245 126 80 41 213 111 295 154 665 346 713
374 819 481 222 221 118 420 -226 430 -58 1 -108 1 -110 -1z"/>
<path d="M326 1214 c-126 -46 -185 -175 -137 -299 21 -55 55 -90 115 -120 l50
-25 2300 3 2301 2 40 22 c177 95 157 351 -33 419 -58 20 -4580 19 -4636 -2z"/>
</g>
</svg>
